<?xml version="1.0" encoding="UTF-8"?>
<svg id="Layer_2" data-name="Layer 2" xmlns="http://www.w3.org/2000/svg" viewBox="0 0 236.7 61.74">
  <defs>
    <style>
      .cls-1 {
        fill: #f800ff;
      }
    </style>
  </defs>
  <g id="Layer_1-2" data-name="Layer 1">
    <g>
      <path class="cls-1" d="M7.06,25.83l1.51.84c-.97,2.32-1.16,4.59-.56,6.83.67,2.39,2.08,4.27,4.23,5.63s4.44,2.04,6.86,2.04c2.05,0,3.74-.51,5.07-1.54,1.33-1.03,1.97-2.49,1.93-4.4-.04-1.31-.53-2.42-1.48-3.33-.95-.91-2.24-1.73-3.87-2.44s-3.93-1.57-6.92-2.58c-2.28-.78-4.2-1.64-5.77-2.58-1.57-.93-2.8-2.13-3.7-3.59-.9-1.46-1.34-3.25-1.34-5.38,0-2.88.74-5.24,2.21-7.09,1.48-1.85,3.44-3.19,5.88-4.03,2.45-.84,5.2-1.24,8.26-1.2,2.88.08,5.68.5,8.4,1.29,2.73.78,5.14,1.89,7.23,3.31l-6.39,11.09-1.46-.62c.26-1.05.39-2.04.39-2.97,0-2.32-.9-4.07-2.69-5.27s-3.87-1.79-6.22-1.79c-1.76,0-3.23.32-4.43.95-1.2.63-1.81,1.57-1.85,2.8,0,1.05.42,1.95,1.26,2.72.84.77,1.93,1.43,3.28,1.99,1.34.56,3.25,1.25,5.71,2.07.93.3,1.85.6,2.75.9,2.28.82,4.21,1.73,5.8,2.72,1.59.99,2.84,2.22,3.75,3.7.91,1.48,1.37,3.24,1.37,5.3-.04,3.4-.9,6.24-2.58,8.52-1.68,2.28-3.9,3.95-6.67,5.02-2.77,1.06-5.85,1.6-9.24,1.6-3.18,0-6.33-.47-9.47-1.4-3.14-.93-5.92-2.24-8.35-3.92l7.06-15.18Z"/>
      <path class="cls-1" d="M41.71,42.61c.17-.73.25-1.6.25-2.61V9.19c0-1.16-.24-2.05-.73-2.66-.49-.62-1.21-.92-2.19-.92h-.9v-1.34h15.02v2.41c3.88-1.94,7.43-2.91,10.65-2.91,2.61,0,4.88.58,6.81,1.74s3.39,2.67,4.4,4.54c1.01,1.87,1.51,3.87,1.51,6,0,2.28-.59,4.42-1.77,6.41s-2.96,3.61-5.35,4.85c-2.39,1.23-5.32,1.85-8.8,1.85-2.65,0-5.14-.41-7.45-1.23v12.55c0,.9.14,1.67.42,2.33s.74,1.3,1.37,1.93h-14.12c.41-.67.7-1.37.87-2.1ZM56.48,24.54c1.83,0,3.36-.35,4.59-1.06,1.23-.71,2.16-1.63,2.77-2.77s.92-2.36.92-3.67-.28-2.54-.84-3.7-1.38-2.09-2.47-2.8c-1.08-.71-2.33-1.06-3.75-1.06s-2.93.37-4.54,1.12v13.56c1.16.26,2.26.39,3.3.39Z"/>
      <path class="cls-1" d="M80.58,42.61c.17-.73.25-1.6.25-2.61V9.19c0-1.16-.24-2.05-.73-2.66-.49-.62-1.21-.92-2.19-.92h-.9v-1.34h15.02v2.63c3.73-2.13,7.38-3.19,10.93-3.19,2.35,0,4.4.5,6.13,1.51s3.06,2.33,3.98,3.95c.91,1.62,1.37,3.37,1.37,5.24,0,2.09-.6,4.05-1.79,5.88-1.2,1.83-3.01,3.28-5.43,4.34-2.43,1.06-5.42,1.5-8.96,1.32l-.06.39c2.61.22,4.8.61,6.55,1.15,1.76.54,3.3,1.39,4.62,2.55,1.33,1.16,2.57,2.76,3.73,4.82.41.71.85,1.62,1.32,2.72.47,1.1.92,2.23,1.37,3.39,1.19,3.1,2.33,5.71,3.42,7.84,1.08,2.13,2.39,3.96,3.92,5.49,1.68,1.68,3.58,2.95,5.69,3.81,2.11.86,4.23,1.29,6.36,1.29,3.44,0,6.16-1.36,8.18-4.09,2.02-2.73,3.12-7.08,3.31-13.05-1.34,1.08-3.06,1.93-5.16,2.55-2.09.62-4.24.92-6.44.92-3.32,0-6.41-.76-9.24-2.27-2.84-1.51-5.1-3.68-6.78-6.5s-2.52-6.12-2.52-9.89c0-3.47.82-6.92,2.47-10.34,1.64-3.42,4.16-6.6,7.56-9.55,3.4-2.95,7.62-5.34,12.66-7.17l.5,1.18c-2.54,1.49-4.67,3.54-6.39,6.13-1.72,2.6-3.01,5.43-3.87,8.52s-1.29,6.17-1.29,9.27.41,5.87,1.23,8.43c.82,2.56,2.03,4.6,3.61,6.13,1.59,1.53,3.5,2.3,5.74,2.3,1.83,0,3.52-.7,5.07-2.1,1.55-1.4,2.51-3.18,2.89-5.35V9.3c0-1.16-.24-2.05-.73-2.66-.49-.62-1.21-.92-2.19-.92h-.9v-1.34h16.14c-.41.67-.7,1.37-.87,2.1-.17.73-.25,1.6-.25,2.61v32.61c0,4.15-1.11,7.73-3.33,10.76-2.22,3.02-5.15,5.33-8.8,6.92-3.64,1.59-7.5,2.38-11.57,2.38-6.54,0-12.45-2.06-17.73-6.16-5.29-4.11-9.65-9.47-13.08-16.08-1.79-3.4-3.2-5.85-4.23-7.37-1.03-1.51-2.04-2.6-3.03-3.25-.99-.65-2.36-1.17-4.12-1.54v12.66c0,1.01.08,1.88.25,2.61s.46,1.43.87,2.1h-13.45c.41-.67.7-1.37.87-2.1ZM99.72,22.75c1.23-.71,2.13-1.63,2.69-2.77.56-1.14.84-2.38.84-3.73,0-1.23-.23-2.39-.7-3.47-.47-1.08-1.18-1.96-2.13-2.63-.95-.67-2.08-1.01-3.39-1.01-1.46,0-3.12.47-4.99,1.4v13c1.19.19,2.18.28,2.97.28,1.91,0,3.47-.35,4.71-1.06Z"/>
      <path class="cls-1" d="M175.49,42.66c.17-.73.25-1.6.25-2.61V8.18c-1.64.04-3.32.64-5.02,1.82-1.7,1.18-3.18,2.86-4.45,5.04-1.27,2.18-2.11,4.7-2.52,7.54l-1.23-.17,2.58-18.15h32.5l2.52,18.15-1.23.17c-.34-2.84-1.15-5.34-2.44-7.51-1.29-2.17-2.79-3.85-4.51-5.04-1.72-1.19-3.38-1.81-4.99-1.85v31.82c0,1.01.08,1.88.25,2.61s.46,1.43.87,2.1l-13.45.06c.41-.67.7-1.37.87-2.1Z"/>
      <path class="cls-1" d="M204.9,42.61c.17-.73.25-1.6.25-2.61V9.19c0-1.16-.24-2.05-.73-2.66-.49-.62-1.21-.92-2.19-.92h-.9v-1.34h32.61l2.47,10.93-1.23.5c-.97-1.72-2.02-3.11-3.14-4.17s-2.6-1.89-4.43-2.47c-1.83-.58-4.2-.87-7.12-.87h-4.15v9.52l4.31-.06c2.76-.04,4.99-.23,6.67-.59,1.68-.35,2.71-1.05,3.08-2.1l.95.11v9.02l-.95.22c-.37-1.05-1.4-1.75-3.08-2.1-1.68-.35-3.9-.55-6.67-.59l-4.31-.06v18.1c3.44-.04,6.4-.35,8.91-.95,2.5-.6,4.61-1.62,6.33-3.08,1.72-1.46,2.91-3.45,3.59-6l1.51.45-2.91,14.62h-29.75c.41-.67.7-1.37.87-2.1Z"/>
    </g>
  </g>
</svg>